<svg xmlns="http://www.w3.org/2000/svg" width="1200" height="600" viewBox="0 0 1200 600" fill="none">
  <defs>
    <linearGradient id="bg" x1="0" y1="0" x2="1200" y2="600" gradientUnits="userSpaceOnUse">
      <stop stop-color="#0B1220"/>
      <stop offset="1" stop-color="#1F1A3A"/>
    </linearGradient>
    <linearGradient id="accent" x1="220" y1="160" x2="980" y2="440" gradientUnits="userSpaceOnUse">
      <stop stop-color="#60A5FA"/>
      <stop offset="1" stop-color="#F59E0B"/>
    </linearGradient>
    <filter id="shadow" x="-40" y="-40" width="1280" height="680" color-interpolation-filters="sRGB">
      <feDropShadow dx="0" dy="12" stdDeviation="18" flood-color="#000" flood-opacity=".35"/>
    </filter>
  </defs>

  <rect width="1200" height="600" rx="28" fill="url(#bg)"/>
  <path d="M0 470C180 430 300 520 470 480C640 440 720 260 860 230C1000 200 1100 300 1200 260V600H0V470Z" fill="#3B82F6" opacity=".12"/>

  <g filter="url(#shadow)">
    <rect x="160" y="140" width="880" height="320" rx="26" fill="#0B162B" stroke="#312E81"/>

    <path d="M240 420V220" stroke="#1F2937" stroke-width="10" stroke-linecap="round"/>
    <path d="M240 420H760" stroke="#1F2937" stroke-width="10" stroke-linecap="round"/>

    <path d="M260 380L360 320L460 350L560 260L700 300" stroke="url(#accent)" stroke-width="10" stroke-linecap="round" stroke-linejoin="round"/>
    <circle cx="260" cy="380" r="10" fill="#60A5FA"/>
    <circle cx="360" cy="320" r="10" fill="#93C5FD"/>
    <circle cx="460" cy="350" r="10" fill="#F59E0B"/>
    <circle cx="560" cy="260" r="10" fill="#FDBA74"/>
    <circle cx="700" cy="300" r="10" fill="#FDE047"/>

    <rect x="800" y="210" width="190" height="210" rx="18" fill="#0E223F" stroke="#312E81"/>
    <path d="M830 250h120" stroke="#1F2937" stroke-width="10" stroke-linecap="round"/>
    <path d="M830 290h90" stroke="#1F2937" stroke-width="10" stroke-linecap="round"/>
    <path d="M830 330h140" stroke="#1F2937" stroke-width="10" stroke-linecap="round"/>
    <path d="M830 250h70" stroke="url(#accent)" stroke-width="10" stroke-linecap="round"/>
    <path d="M830 290h50" stroke="url(#accent)" stroke-width="10" stroke-linecap="round"/>
    <path d="M830 330h90" stroke="url(#accent)" stroke-width="10" stroke-linecap="round"/>
  </g>

  <text x="160" y="86" fill="#E5E7EB" font-family="ui-sans-serif, system-ui, -apple-system, Segoe UI, Roboto" font-size="26" font-weight="700" opacity=".95">Analytics &amp; BI</text>
</svg>

