<svg xmlns="http://www.w3.org/2000/svg" width="1200" height="600" viewBox="0 0 1200 600" fill="none">
  <defs>
    <linearGradient id="bg" x1="0" y1="0" x2="1200" y2="600" gradientUnits="userSpaceOnUse">
      <stop stop-color="#0B1220"/>
      <stop offset="1" stop-color="#2A145A"/>
    </linearGradient>
    <linearGradient id="accent" x1="220" y1="170" x2="980" y2="430" gradientUnits="userSpaceOnUse">
      <stop stop-color="#A78BFA"/>
      <stop offset="1" stop-color="#F472B6"/>
    </linearGradient>
    <filter id="shadow" x="-40" y="-40" width="1280" height="680" color-interpolation-filters="sRGB">
      <feDropShadow dx="0" dy="12" stdDeviation="18" flood-color="#000" flood-opacity=".35"/>
    </filter>
  </defs>

  <rect width="1200" height="600" rx="28" fill="url(#bg)"/>
  <path d="M0 520C220 420 340 520 520 460C700 400 770 240 920 230C1070 220 1120 310 1200 280V600H0V520Z" fill="#6D28D9" opacity=".18"/>

  <g filter="url(#shadow)">
    <rect x="170" y="140" width="860" height="320" rx="24" fill="#0B162B" stroke="#3B2A66"/>
    <circle cx="410" cy="300" r="92" fill="#0E223F" stroke="#46307A" stroke-width="2"/>
    <circle cx="410" cy="300" r="52" fill="#0B162B" stroke="url(#accent)" stroke-width="8"/>

    <path d="M410 180V220" stroke="url(#accent)" stroke-width="10" stroke-linecap="round"/>
    <path d="M410 380V420" stroke="url(#accent)" stroke-width="10" stroke-linecap="round"/>
    <path d="M290 300H330" stroke="url(#accent)" stroke-width="10" stroke-linecap="round"/>
    <path d="M490 300H530" stroke="url(#accent)" stroke-width="10" stroke-linecap="round"/>
    <path d="M326 216L354 244" stroke="url(#accent)" stroke-width="10" stroke-linecap="round"/>
    <path d="M494 384L466 356" stroke="url(#accent)" stroke-width="10" stroke-linecap="round"/>
    <path d="M494 216L466 244" stroke="url(#accent)" stroke-width="10" stroke-linecap="round"/>
    <path d="M326 384L354 356" stroke="url(#accent)" stroke-width="10" stroke-linecap="round"/>

    <rect x="570" y="210" width="380" height="70" rx="16" fill="#0E223F" stroke="#46307A"/>
    <rect x="570" y="300" width="380" height="70" rx="16" fill="#0E223F" stroke="#46307A"/>
    <path d="M620 245H900" stroke="url(#accent)" stroke-width="8" stroke-linecap="round"/>
    <path d="M620 335H860" stroke="url(#accent)" stroke-width="8" stroke-linecap="round" opacity=".9"/>
    <circle cx="915" cy="245" r="10" fill="#F472B6"/>
    <circle cx="875" cy="335" r="10" fill="#A78BFA"/>
  </g>

  <text x="160" y="86" fill="#E5E7EB" font-family="ui-sans-serif, system-ui, -apple-system, Segoe UI, Roboto" font-size="26" font-weight="700" opacity=".95">Process Automation</text>
</svg>

