<svg xmlns="http://www.w3.org/2000/svg" width="1200" height="600" viewBox="0 0 1200 600" fill="none">
  <defs>
    <linearGradient id="bg" x1="0" y1="0" x2="1200" y2="600" gradientUnits="userSpaceOnUse">
      <stop stop-color="#0B1220"/>
      <stop offset="1" stop-color="#0F2A4F"/>
    </linearGradient>
    <linearGradient id="accent" x1="180" y1="120" x2="1020" y2="480" gradientUnits="userSpaceOnUse">
      <stop stop-color="#22C55E"/>
      <stop offset="1" stop-color="#60A5FA"/>
    </linearGradient>
    <filter id="shadow" x="-40" y="-40" width="1280" height="680" color-interpolation-filters="sRGB">
      <feDropShadow dx="0" dy="12" stdDeviation="18" flood-color="#000" flood-opacity=".35"/>
    </filter>
  </defs>

  <rect width="1200" height="600" rx="28" fill="url(#bg)"/>
  <path d="M0 450C160 360 280 420 420 380C560 340 640 240 780 220C920 200 1040 260 1200 210V600H0V450Z" fill="#0B3B73" opacity=".35"/>

  <g filter="url(#shadow)">
    <rect x="140" y="120" width="920" height="360" rx="22" fill="#0B162B" stroke="#233B66"/>
    <rect x="180" y="160" width="260" height="120" rx="16" fill="#0E223F" stroke="#2A4A7A"/>
    <rect x="470" y="160" width="260" height="120" rx="16" fill="#0E223F" stroke="#2A4A7A"/>
    <rect x="760" y="160" width="260" height="120" rx="16" fill="#0E223F" stroke="#2A4A7A"/>

    <rect x="180" y="310" width="360" height="130" rx="18" fill="#0E223F" stroke="#2A4A7A"/>
    <rect x="570" y="310" width="450" height="130" rx="18" fill="#0E223F" stroke="#2A4A7A"/>

    <path d="M310 220H600" stroke="url(#accent)" stroke-width="6" stroke-linecap="round"/>
    <path d="M600 220H890" stroke="url(#accent)" stroke-width="6" stroke-linecap="round"/>
    <path d="M360 375H710" stroke="url(#accent)" stroke-width="6" stroke-linecap="round" opacity=".9"/>
    <path d="M710 375H910" stroke="url(#accent)" stroke-width="6" stroke-linecap="round" opacity=".9"/>

    <circle cx="310" cy="220" r="12" fill="#22C55E"/>
    <circle cx="600" cy="220" r="12" fill="#34D399"/>
    <circle cx="890" cy="220" r="12" fill="#60A5FA"/>
    <circle cx="360" cy="375" r="12" fill="#22C55E"/>
    <circle cx="710" cy="375" r="12" fill="#60A5FA"/>
    <circle cx="910" cy="375" r="12" fill="#93C5FD"/>
  </g>

  <text x="160" y="86" fill="#E5E7EB" font-family="ui-sans-serif, system-ui, -apple-system, Segoe UI, Roboto" font-size="26" font-weight="700" opacity=".95">ERP Integration</text>
</svg>

