<svg xmlns="http://www.w3.org/2000/svg" width="1200" height="600" viewBox="0 0 1200 600" fill="none">
  <defs>
    <linearGradient id="bg" x1="0" y1="0" x2="1200" y2="600" gradientUnits="userSpaceOnUse">
      <stop stop-color="#111827"/>
      <stop offset="1" stop-color="#3B1D0A"/>
    </linearGradient>
    <linearGradient id="accent" x1="220" y1="170" x2="980" y2="430" gradientUnits="userSpaceOnUse">
      <stop stop-color="#FB923C"/>
      <stop offset="1" stop-color="#FDE047"/>
    </linearGradient>
    <filter id="shadow" x="-40" y="-40" width="1280" height="680" color-interpolation-filters="sRGB">
      <feDropShadow dx="0" dy="12" stdDeviation="18" flood-color="#000" flood-opacity=".35"/>
    </filter>
  </defs>

  <rect width="1200" height="600" rx="28" fill="url(#bg)"/>
  <path d="M0 470C160 440 280 520 440 480C600 440 670 250 840 220C1010 190 1080 280 1200 240V600H0V470Z" fill="#F97316" opacity=".12"/>

  <g filter="url(#shadow)">
    <rect x="150" y="140" width="900" height="320" rx="26" fill="#0B162B" stroke="#4B2B16"/>

    <rect x="210" y="210" width="220" height="180" rx="18" fill="#141F33" stroke="#6B3F1F"/>
    <rect x="460" y="210" width="220" height="180" rx="18" fill="#141F33" stroke="#6B3F1F"/>
    <rect x="710" y="210" width="280" height="180" rx="18" fill="#141F33" stroke="#6B3F1F"/>

    <path d="M250 260h140" stroke="url(#accent)" stroke-width="10" stroke-linecap="round"/>
    <path d="M250 300h120" stroke="url(#accent)" stroke-width="10" stroke-linecap="round" opacity=".85"/>
    <path d="M500 260h140" stroke="url(#accent)" stroke-width="10" stroke-linecap="round"/>
    <path d="M500 300h110" stroke="url(#accent)" stroke-width="10" stroke-linecap="round" opacity=".85"/>

    <path d="M760 250h190" stroke="url(#accent)" stroke-width="10" stroke-linecap="round"/>
    <path d="M760 290h150" stroke="url(#accent)" stroke-width="10" stroke-linecap="round" opacity=".85"/>

    <path d="M290 405C430 460 530 460 650 420C770 380 860 330 980 360" stroke="url(#accent)" stroke-width="8" stroke-linecap="round"/>
    <circle cx="290" cy="405" r="10" fill="#FB923C"/>
    <circle cx="650" cy="420" r="10" fill="#FDBA74"/>
    <circle cx="980" cy="360" r="10" fill="#FDE047"/>
  </g>

  <text x="160" y="86" fill="#E5E7EB" font-family="ui-sans-serif, system-ui, -apple-system, Segoe UI, Roboto" font-size="26" font-weight="700" opacity=".95">Inventory &amp; Supply Chain</text>
</svg>

